<?xml version="1.0" encoding="utf-8"?>
<svg xmlns="http://www.w3.org/2000/svg" viewBox="-0.0002 -1.2605 20.0002 20.0005" width="20.0002px" height="21.2605px" xmlns:bx="https://boxy-svg.com">
  <defs>
    <linearGradient id="gradient-4-0" href="#gradient-4" gradientUnits="userSpaceOnUse" x1="10" y1="0" x2="10" y2="20" gradientTransform="matrix(1, 0, 0, 1, -0.000307, -1.260998)"/>
    <linearGradient id="gradient-4">
      <title>Rotor Outline</title>
      <stop style="stop-color: rgb(80, 26, 142);" offset="0"/>
      <stop style="stop-color: rgb(42, 22, 95);" offset="1"/>
    </linearGradient>
    <linearGradient id="gradient-1-0" href="#gradient-1" gradientUnits="userSpaceOnUse" x1="-5" y1="-20" x2="-5" y2="0" gradientTransform="matrix(1, 0, 0, 1, 0.00108, 1.261478)"/>
    <linearGradient id="gradient-1">
      <title>Vector Outline</title>
      <stop style="stop-color: rgb(25, 68, 56);" offset="0"/>
      <stop style="stop-color: rgb(40, 115, 83);" offset="1"/>
    </linearGradient>
    <linearGradient id="gradient-0-0" href="#gradient-0" gradientUnits="userSpaceOnUse" x1="10" y1="1" x2="10" y2="19" gradientTransform="matrix(1, 0, 0, 1, -0.000307, -1.260998)"/>
    <linearGradient id="gradient-0" bx:pinned="true">
      <title>Rotor Fill</title>
      <stop offset="0" style="stop-color: rgb(192, 52, 210);"/>
      <stop offset="1" style="stop-color: rgb(149, 52, 210);"/>
    </linearGradient>
    <linearGradient id="gradient-2-2" href="#gradient-2" gradientUnits="userSpaceOnUse" x1="14.5" y1="5.5" x2="14.5" y2="14.5" gradientTransform="matrix(0, -2.000234, 2.000202, 0, -12.187513, 39.990729)"/>
    <linearGradient id="gradient-2" bx:pinned="true">
      <title>Vector Fill</title>
      <stop offset="0" style="stop-color: rgb(60, 198, 111);"/>
      <stop offset="1" style="stop-color: rgb(60, 198, 149);"/>
    </linearGradient>
  </defs>
  <ellipse style="stroke-width: 1; fill: url(&quot;#gradient-4-0&quot;);" cx="10" cy="8.74" rx="10" ry="10" transform="matrix(1, 0, 0, 1, 3.552713678800501e-15, 1.7763568394002505e-15)"/>
  <path style="fill: url(&quot;#gradient-1-0&quot;); transform-origin: -4.999px -8.739px;" d="M -9.999 -18.739 A 10 10 0 1 1 -9.999 1.261 A 81656196765976850 81656196765976850 0 0 1 -9.999 -18.739 Z" bx:shape="crescent -9.999 -8.739 10 180 0.5 1@7cc9411d" transform="matrix(-1, 0, 0, -1, 9.99877243, 17.47848015)"/>
  <path d="M 19 8.74 C 19 13.708 14.967 17.736 10 17.74 C 7.518 17.737 5.514 15.723 5.514 13.24 C 5.514 10.755 7.529 8.74 10.014 8.74 C 12.499 8.74 14.514 6.725 14.514 4.24 C 14.514 1.766 12.469 -0.242 10 -0.26 C 14.949 -0.234 19 3.785 19 8.74 Z" style="stroke-width: 1; fill: url(&quot;#gradient-0-0&quot;);" transform="matrix(1, 0, 0, 1, 3.552713678800501e-15, 1.7763568394002505e-15)"/>
  <path d="M 12.312 15.497 C 14.797 15.497 16.812 13.482 16.812 10.997 C 16.812 4.069 9.312 -0.261 3.312 3.203 C 0.527 4.81 -1.188 7.782 -1.188 10.997 C -1.188 8.512 0.827 6.497 3.312 6.497 C 5.797 6.497 7.812 8.512 7.812 10.997 C 7.812 13.482 9.827 15.497 12.312 15.497 Z" style="stroke-width: 1; fill: url(&quot;#gradient-2-2&quot;); transform-origin: 7.812px 8.74px;" transform="matrix(0, -1, 1, 0, 5e-8, -0.00000118)"/>
  <path d="M 12.897 7.068 C 13.648 6.317 14.069 5.38 14.069 4.24 C 14.069 3.1 13.649 2.163 12.897 1.412 C 12.146 0.661 11.209 0.24 10.069 0.24 C 6.744 0.24 4.168 1.961 2.708 4.49 C 1.248 7.019 1.009 10.131 2.708 12.99 C 3.628 14.626 5.006 16.027 6.638 16.874 C 6.602 16.842 6.568 16.809 6.533 16.775 C 5.656 15.898 5.068 14.584 5.068 13.24 C 5.068 11.895 5.655 10.582 6.533 9.705 C 7.41 8.828 8.724 8.24 10.068 8.24 C 11.208 8.24 12.145 7.82 12.896 7.068 L 12.897 7.068 Z" style="stroke-width: 1; fill-rule: nonzero; paint-order: fill; fill-opacity: 0.25; fill: rgb(93, 238, 174);" transform="matrix(1, 0, 0, 1, 3.552713678800501e-15, 1.7763568394002505e-15)"/>
  <path d="M 17.39 7.435 C 18.141 6.684 18.562 5.747 18.562 4.607 C 18.562 3.467 18.142 2.53 17.39 1.779 C 16.639 1.028 15.702 0.607 14.562 0.607 C 11.237 0.607 8.661 2.328 7.201 4.857 C 5.741 7.386 5.502 10.498 7.201 13.357 C 8.121 14.993 9.499 16.394 11.131 17.241 C 11.095 17.209 11.061 17.176 11.026 17.142 C 10.149 16.265 9.561 14.951 9.561 13.607 C 9.561 12.262 10.148 10.949 11.026 10.072 C 11.903 9.195 13.217 8.607 14.561 8.607 C 15.701 8.607 16.638 8.187 17.389 7.435 L 17.39 7.435 Z" style="stroke-width: 1; fill-rule: nonzero; paint-order: fill; fill-opacity: 0.25; fill: rgb(237, 93, 238); transform-origin: 12.2883px 8.924px;" transform="matrix(-1, 0, 0, -1, 0.00000418, 2.7e-7)"/>
  <path d="M 12.312 15.496 C 14.797 15.496 16.812 13.481 16.812 10.996 C 16.812 4.068 9.312 -0.262 3.312 3.202 C 0.527 4.809 -1.188 7.781 -1.188 10.996 C -1.188 8.511 0.827 6.496 3.312 6.496 C 5.797 6.496 7.812 8.511 7.812 10.996 C 7.812 13.481 9.827 15.496 12.312 15.496 Z" style="stroke-width: 1; fill: none; transform-origin: 7.812px 8.73942px;" transform="matrix(0, -1, 1, 0, 5e-8, -0.00000166)"/>
  <g transform="matrix(1.5082969665527346, 0, 0, 1.5082969665527346, 24.189346673925918, -0.005472000304191482)" style="">
    <path d="M -1.708 2.27 H 1.096 L 1.096 1.983 L 1.849 2.431 L 1.096 2.879 L 1.096 2.593 H -1.708 V 2.27 Z" bx:shape="arrow -1.708 1.983 3.557 0.896 0.323 0.753 0 1@15ade76d" style="fill: rgb(255, 255, 255); stroke-width: 0.587;" transform="matrix(0, -1, 1, -0.000896, -13.738074, 2.014327)"/>
    <path d="M -11.302 1.755 L -9.673 2.696 L -9.673 4.576 L -11.302 5.517 L -12.931 4.577 L -12.931 2.696 Z" bx:shape="n-gon -11.302 3.636 1.881 1.881 6 0 1@ba518b20" style="fill: rgb(255, 255, 255); stroke-width: 0.587;"/>
    <path d="M -1.708 2.27 H 1.096 L 1.096 1.983 L 1.849 2.431 L 1.096 2.879 L 1.096 2.593 H -1.708 V 2.27 Z" bx:shape="arrow -1.708 1.983 3.557 0.896 0.323 0.753 0 1@15ade76d" style="fill: rgb(255, 255, 255); stroke-width: 0.587; transform-origin: 0.07px 2.431px;" transform="matrix(0.866025, 0.5, -0.499224, 0.866474, -9.927969, 2.002626)"/>
    <path d="M -1.708 2.27 H 1.096 L 1.096 1.983 L 1.849 2.431 L 1.096 2.879 L 1.096 2.593 H -1.708 V 2.27 Z" bx:shape="arrow -1.708 1.983 3.557 0.896 0.323 0.753 0 1@15ade76d" style="fill: rgb(255, 255, 255); stroke-width: 0.587; transform-origin: 0.07px 2.431px;" transform="matrix(-0.866025, 0.5, 0.499224, 0.866474, -12.741979, 2.01755)"/>
  </g>
  <g transform="matrix(1.4632740020751953, 0, 0, 1.4632740020751953, -2.5568299674515416, -6.431470013133733)" style="">
    <path d="M -1.708 2.27 H 1.096 L 1.096 1.983 L 1.849 2.431 L 1.096 2.879 L 1.096 2.593 H -1.708 V 2.27 Z" bx:shape="arrow -1.708 1.983 3.557 0.896 0.323 0.753 0 1@15ade76d" style="fill: rgb(255, 255, 255); stroke-width: 0.587;" transform="matrix(0, -1, 1, -0.000896, 5.497426, 13.046581)"/>
    <path d="M 10.119 11.362 L 11.748 12.303 L 11.748 14.184 L 10.119 15.124 L 8.49 14.184 L 8.49 12.303 Z" bx:shape="n-gon 10.119 13.243 1.881 1.881 6 0 1@f6db1e0e" style="fill: rgb(255, 255, 255); stroke-width: 0.587;"/>
    <path d="M -1.708 2.27 H 1.096 L 1.096 1.983 L 1.849 2.431 L 1.096 2.879 L 1.096 2.593 H -1.708 V 2.27 Z" bx:shape="arrow -1.708 1.983 3.557 0.896 0.323 0.753 0 1@15ade76d" style="fill: rgb(255, 255, 255); stroke-width: 0.587; transform-box: fill-box; transform-origin: 50% 50%;" transform="matrix(0.866025, 0.5, -0.499224, 0.866474, 11.404278, 9.140369)"/>
    <path d="M 1.708 -1.697 H 4.512 L 4.512 -1.983 L 5.265 -1.535 L 4.512 -1.087 L 4.512 -1.374 H 1.708 V -1.697 Z" bx:shape="arrow 1.708 -1.983 3.557 0.896 0.323 0.753 0 1@4c1b6849" style="fill: rgb(255, 255, 255); stroke-width: 0.587; transform-origin: 3.487px -1.535px;" transform="matrix(-0.866025, 0.5, 0.499224, 0.866474, 7.431771, 16.776178)"/>
  </g>
</svg>